<svg xmlns="http://www.w3.org/2000/svg" width="52" height="42" viewBox="0 0 52 42"><path fill="#c00" d="M44.95 27.09l-1.75.97a25.65 25.65 0 0 1-7.18 2.6c-1.08.21-2.19.29-3.28.41a10 10 0 0 1-3.85-.31 9.91 9.91 0 0 1-4.61-2.77 9.94 9.94 0 0 1-2.7-5.63 9.84 9.84 0 0 1 .87-5.65 9.99 9.99 0 0 1 8.85-5.8c2.2-.04 4.34.27 6.45.86a28.7 28.7 0 0 1 7.02 3.08l.15.09a.75.75 0 0 0 .03-.17c0-2.71-.01-5.42.01-8.13 0-.39-.13-.6-.47-.78-2.44-1.37-5-2.45-7.66-3.27a34.2 34.2 0 0 0-5.36-1.26c-1.24-.18-2.49-.31-3.73-.47-.12-.01-.23-.07-.34-.11h-4.77c-.1.03-.2.09-.31.1-3.19.28-6.32.87-9.35 1.95A19.87 19.87 0 0 0 .54 18.58c-.04.33-.13.65-.19.98v2.94c.08.47.18.94.25 1.42a19.36 19.36 0 0 0 4.84 10.11 19.31 19.31 0 0 0 8.63 5.56 45.1 45.1 0 0 0 8.13 1.57c1.38.1 2.78.11 4.18.07 1.16-.04 2.33-.18 3.49-.3a34.5 34.5 0 0 0 5.32-1.04 36.4 36.4 0 0 0 6.09-2.15c1.15-.53 2.26-1.14 3.39-1.71.2-.1.29-.23.29-.47l-.01-8.03v-.44zm-25.68-8.21a6.86 6.86 0 0 1-2.14 3.52 7.47 7.47 0 0 1-3.04 1.59c-.79.23-1.57.13-2.35.17a2.2 2.2 0 0 1-.62-.08c-.25-.07-.41-.23-.41-.53v-3.07c0-.38.07-.41.42-.28.76.27 1.52.29 2.3.06a3.06 3.06 0 0 0 2.22-2.18 3.4 3.4 0 0 0-.02-1.97 3.23 3.23 0 0 0-2.21-2.25 3.07 3.07 0 0 0-3.12.66 3.56 3.56 0 0 0-1.2 2.83c.02 4.79.01 9.59.01 14.39v.56a2.97 2.97 0 0 1-1.6-.46c-.38-.28-.8-.53-1.11-.88a3.62 3.62 0 0 1-1.03-2.48c.02-3.79.02-7.57 0-11.35 0-1.3.36-2.48.99-3.58a6.75 6.75 0 0 1 5.11-3.53 7.04 7.04 0 0 1 6.49 2.64 7.1 7.1 0 0 1 1.31 6.22zm32.19-2.92H38.51l-.23.02V20c.99 0 1.97.01 2.94-.01.31 0 .38.11.38.4v5.22l.02.42h6.68v-.48-5.11c0-.42 0-.42.43-.42l2.92-.02v-4.03l-.19-.01z"/></svg>