<svg xmlns="http://www.w3.org/2000/svg" width="52" height="52" viewBox="0 0 52 52"><path fill="#c00" d="M51.74 23.13c-.08-.73-.93-1.28-1.67-1.28a5.76 5.76 0 0 1-5.36-3.55 5.78 5.78 0 0 1 1.45-6.41c.55-.51.62-1.37.16-1.96a25.91 25.91 0 0 0-4.1-4.15 1.44 1.44 0 0 0-1.98.16 5.96 5.96 0 0 1-6.46 1.45 5.75 5.75 0 0 1-3.5-5.62A1.44 1.44 0 0 0 29.01.25a25.82 25.82 0 0 0-5.83-.01c-.75.08-1.31.73-1.29 1.48a5.77 5.77 0 0 1-3.54 5.53 5.99 5.99 0 0 1-6.42-1.46 1.45 1.45 0 0 0-1.95-.17 25.88 25.88 0 0 0-4.2 4.15c-.47.6-.4 1.46.16 1.97a5.75 5.75 0 0 1 1.45 6.47 5.99 5.99 0 0 1-5.64 3.5c-.82-.02-1.4.53-1.5 1.28a25.95 25.95 0 0 0 0 5.89c.07.73.95 1.28 1.7 1.28a5.68 5.68 0 0 1 5.32 3.55c.91 2.21.33 4.79-1.45 6.41a1.44 1.44 0 0 0-.15 1.95 25.58 25.58 0 0 0 4.1 4.15c.59.48 1.45.42 1.97-.15a5.97 5.97 0 0 1 6.46-1.46 5.76 5.76 0 0 1 3.5 5.63c-.04.76.52 1.43 1.28 1.51a24.8 24.8 0 0 0 5.82.02c.76-.08 1.31-.73 1.29-1.48a5.76 5.76 0 0 1 3.54-5.53 5.97 5.97 0 0 1 6.42 1.46c.51.56 1.36.62 1.96.16a25.77 25.77 0 0 0 4.19-4.14c.47-.6.4-1.46-.16-1.98a5.73 5.73 0 0 1 3.85-9.98l.32.01c.74.06 1.43-.51 1.52-1.27.23-1.95.23-3.93.01-5.89zM25.99 40.95a14.94 14.94 0 1 1 12.83-7.28l-6.54-6.55a9.14 9.14 0 0 0-1.96-10.05 9.06 9.06 0 0 0-8.9-2.37 1.02 1.02 0 0 0-.43 1.72l4.32 4.33c.11.12.11.39.1.49l-.02.07c-.1 1.19-.32 2.61-.49 3.16a.51.51 0 0 0-.07.07l-.07.07c-.55.18-2 .39-3.2.5v-.01l-.06.02h-.05a.7.7 0 0 1-.5-.21l-4.23-4.21a1.05 1.05 0 0 0-.75-.34c-.45 0-.84.32-.97.78a9.2 9.2 0 0 0 8.84 11.57c1.25 0 2.46-.25 3.58-.73l6.61 6.62a14.9 14.9 0 0 1-8.04 2.35z"/></svg>