<svg xmlns="http://www.w3.org/2000/svg" width="39" height="59" viewBox="0 0 39 59"><path fill="#c00" d="M25.42 16.67c.78 0 1.42-.63 1.42-1.41l2.1-8.06S26.12.25 25.42.25H13.58c-.83 0-3.52 7.21-3.52 7.21l2.1 7.8c0 .78.64 1.41 1.42 1.41l1.56.7h2v2.42c0 .97.8 1.76 1.78 1.76h.25c.92 0 1.67.73 1.7 1.64-1.34-.79-2.85-.81-3.8.01l-.41.35a1.76 1.76 0 0 0-2.08 1.71L3.12 34.53H2.03c-.72 0-1.3.58-1.3 1.3v21.63c0 .71.58 1.29 1.3 1.29h34.94c.72 0 1.3-.58 1.3-1.29V35.83c0-.72-.58-1.3-1.3-1.3h-1.92L23.9 25.54a5.24 5.24 0 0 0-3.2-7.29v-.88h3.17zM8.72 43.51l4.35-4.89 4.36 4.89h-2.27v5.13h-4.17v-5.13zM7.53 54.66v-3.13h23.94v3.13zm20.48-11.15v5.13h-4.17v-5.13h-2.27l4.36-4.89 4.35 4.89zm1.41-8.98H8.73l8.14-6.58a5.29 5.29 0 0 0 4.45.06z"/></svg>