<svg xmlns="http://www.w3.org/2000/svg" width="33" height="63" viewBox="0 0 33 63"><path fill="#c00" d="M32.21 45.34l-4.84-18.27a.95.95 0 0 0-.9-.71v-.01c-.92-8.83-3.22-14.72-6.81-17.5a7.33 7.33 0 0 0-4.9-1.69L6.65.95a.96.96 0 0 0-1.34.17l-.2.27a.94.94 0 0 0 .17 1.33l3.91 3c-.58.51-.9 1.2-.9 1.95H4.97a.96.96 0 0 0-.95.96v.33c0 .52.43.95.95.95h2.95v4.32A10.64 10.64 0 0 0 .75 24.27V61.3c0 .52.43.95.96.95h19.34c.53 0 .95-.43.95-.95V24.27c0-4.52-2.88-8.56-7.16-10.04V9.91l.76-.5c.63.09 1.6.37 2.69 1.2 3.1 2.41 5.1 7.8 5.96 16.04v.01a.96.96 0 0 0-.7.92l.01 18.93c0 .27.12.53.33.71.2.18.48.26.75.23l6.78-.92a.96.96 0 0 0 .8-1.19zm-22.15 2.34c-.1.33-.27.65-.48.91a2.4 2.4 0 0 1-1 .74.36.36 0 0 1-.14.03.41.41 0 0 1-.24-.08.4.4 0 0 1-.14-.37 4.22 4.22 0 0 0 .05-.93 2.1 2.1 0 0 0-.33-.95 5.25 5.25 0 0 0-.7-.94l-.01-.01-.05-.05a9.79 9.79 0 0 1-.06-.07l-.04-.04-.13-.16-.34-.47a3.75 3.75 0 0 1-.47-1.15 3.1 3.1 0 0 1-.02-1.22c.08-.44.25-.77.39-.96a2.3 2.3 0 0 1 .97-.85.38.38 0 0 1 .38.03c.12.07.18.2.17.34a4.31 4.31 0 0 0 .05.96c.03.18.09.34.17.48a5.08 5.08 0 0 0 .59.79v.02l.06.06.04.03v.02l.09.08.02.03.06.06.09.1.18.2c.25.31.46.64.62.99.17.39.29.8.33 1.19.04.4 0 .83-.12 1.19zm4.84-9.96l.4.46c.55.68 1 1.41 1.36 2.17.38.84.63 1.74.71 2.6.1.9 0 1.8-.24 2.61a5.9 5.9 0 0 1-2.37 3.18 5.2 5.2 0 0 1-1.7.7l-.07.01c-.1 0-.2-.05-.28-.12a.38.38 0 0 1-.1-.35l.11-.51c.05-.28.12-.65.15-1.06.04-.45.04-.85 0-1.19a4.5 4.5 0 0 0-.73-2.08 25.16 25.16 0 0 0-1.54-2.07l-.11-.12-.14-.16-.08-.1-.28-.33A8.2 8.2 0 0 1 8.2 37.8a6.72 6.72 0 0 1-.04-2.66 5.63 5.63 0 0 1 2.07-3.42 5.05 5.05 0 0 1 1.7-.85.4.4 0 0 1 .35.08c.1.09.15.21.13.34a16.63 16.63 0 0 0-.1 1.62c.02.44.06.84.14 1.18.08.38.2.73.37 1.05.14.28.31.54.56.87.2.27.45.56.74.87l.01.02.77.82z"/></svg>