<svg xmlns="http://www.w3.org/2000/svg" width="53" height="51" viewBox="0 0 53 51"><path fill="#c00" d="M52.75 27.33a9.4 9.4 0 0 0-5.38-1.5c-3.36 0-6.16 1.4-6.81 3.26h-.28c-.64-1.88-3.45-3.3-6.82-3.3-2.18 0-4.11.6-5.39 1.52v15.8c0 3.94-3.2 7.14-7.12 7.14a7.14 7.14 0 0 1-7.13-7.13 1.57 1.57 0 1 1 3.14 0 3.99 3.99 0 0 0 7.97 0V27.33a9.38 9.38 0 0 0-5.39-1.5c-3.36 0-6.16 1.4-6.81 3.26h-.28c-.64-1.88-3.45-3.3-6.82-3.3a9.4 9.4 0 0 0-5.38 1.5C1.28 16.1 11.81 7.2 24.93 6.53V5.34a1.57 1.57 0 1 1 3.14 0v1.18c13.13.66 23.67 9.59 24.68 20.8zM6.33 9.53a2.28 2.28 0 1 1-4.56 0c0-1.26 2.28-5.76 2.28-5.76s2.28 4.5 2.28 5.76zM10.5.75S8.79 4.13 8.79 5.07a1.71 1.71 0 1 0 3.42 0c0-.94-1.71-4.32-1.71-4.32z"/></svg>