<svg xmlns="http://www.w3.org/2000/svg" width="59" height="70" viewBox="0 0 59 70">
  <metadata><?xpacket begin="﻿" id="W5M0MpCehiHzreSzNTczkc9d"?>
<x:xmpmeta xmlns:x="adobe:ns:meta/" x:xmptk="Adobe XMP Core 5.6-c138 79.159824, 2016/09/14-01:09:01        ">
   <rdf:RDF xmlns:rdf="http://www.w3.org/1999/02/22-rdf-syntax-ns#">
      <rdf:Description rdf:about=""/>
   </rdf:RDF>
</x:xmpmeta>
                                                                                                    
                                                                                                    
                                                                                                    
                                                                                                    
                                                                                                    
                                                                                                    
                                                                                                    
                                                                                                    
                                                                                                    
                                                                                                    
                                                                                                    
                                                                                                    
                                                                                                    
                                                                                                    
                                                                                                    
                                                                                                    
                                                                                                    
                                                                                                    
                                                                                                    
                                                                                                    
                           
<?xpacket end="w"?></metadata>
<defs>
    <style>
      .cls-1 {
        fill: #c00;
        fill-rule: evenodd;
      }
    </style>
  </defs>
  <path class="cls-1" d="M634.908,1681a3,3,0,0,1-.929,1.72,3.584,3.584,0,0,1-2.726.58,7.363,7.363,0,0,0-5.617,1.53,8.485,8.485,0,0,0-2.783,5.38l4.211,0.41a4.336,4.336,0,0,1,1.255-2.49,3.25,3.25,0,0,1,2.506-.58,7.59,7.59,0,0,0,5.849-1.53,7.256,7.256,0,0,0,2.448-4.64Zm14.616,0a3,3,0,0,1-.929,1.72,3.587,3.587,0,0,1-2.727.58,7.359,7.359,0,0,0-5.616,1.53,8.479,8.479,0,0,0-2.783,5.38l4.211,0.41v0.02a4.822,4.822,0,0,1,.7-1.88,2.906,2.906,0,0,1,3.064-1.21,7.59,7.59,0,0,0,5.849-1.53,7.256,7.256,0,0,0,2.448-4.64Zm0.017,39.61v25.83h-4.312v-45.81l-4.573,4.04v-11.8h-4.231v15.54l-2.053,1.81v36.36h-4.231v-42.34l-3.118,2.75h0v-13.12h-4.23v16.84h0.029L619,1714.08V1751h59v-30.39H649.541Zm7.333,8.41h13.539v4.27H656.874v-4.27Zm13.673,8.04v9.38h-4.231v-5.1h-5.335v5.1H656.75v-9.38h13.8Z" transform="translate(-619 -1681)"/>
</svg>
