<svg xmlns="http://www.w3.org/2000/svg" width="79" height="70" viewBox="0 0 79 70">
  <metadata><?xpacket begin="﻿" id="W5M0MpCehiHzreSzNTczkc9d"?>
<x:xmpmeta xmlns:x="adobe:ns:meta/" x:xmptk="Adobe XMP Core 5.6-c138 79.159824, 2016/09/14-01:09:01        ">
   <rdf:RDF xmlns:rdf="http://www.w3.org/1999/02/22-rdf-syntax-ns#">
      <rdf:Description rdf:about=""/>
   </rdf:RDF>
</x:xmpmeta>
                                                                                                    
                                                                                                    
                                                                                                    
                                                                                                    
                                                                                                    
                                                                                                    
                                                                                                    
                                                                                                    
                                                                                                    
                                                                                                    
                                                                                                    
                                                                                                    
                                                                                                    
                                                                                                    
                                                                                                    
                                                                                                    
                                                                                                    
                                                                                                    
                                                                                                    
                                                                                                    
                           
<?xpacket end="w"?></metadata>
<defs>
    <style>
      .cls-1 {
        fill: #c00;
        fill-rule: evenodd;
      }
    </style>
  </defs>
  <path class="cls-1" d="M872.712,1719.41v15.55l-25.277,7.69v-53.26l6.908,2.1a20.47,20.47,0,0,1,4.064-6.24l-13.475-4.09c-0.065-.02-0.13-0.03-0.2-0.05s-0.131-.03-0.2-0.05a3.374,3.374,0,0,0-1.267,0c-0.065.02-.13,0.03-0.2,0.05a1.4,1.4,0,0,0-.195.05l-7.25,2.2-7.185,2.19v18.3l-8,1.53v-17.42l-6.989,2.12h0l-2.942.89a3.566,3.566,0,0,0-2.52,3.41v43.21a3.551,3.551,0,0,0,2.52,3.42l32.347,9.84a3.545,3.545,0,0,0,1.024.15,3.621,3.621,0,0,0,1.024-.15l32.348-9.84a3.569,3.569,0,0,0,2.52-3.42v-19.5a19.424,19.424,0,0,1-7.006,1.32h-0.065Zm0.065-34.57A14.376,14.376,0,1,0,887,1699.21,14.293,14.293,0,0,0,872.777,1684.84Zm0.894,17.53-2.731,2.74-2.715-2.76-2.617-2.66,2.731-2.74,2.617,2.66,6.275-6.31,2.714,2.76Z" transform="translate(-808 -1681)"/>
</svg>
