<svg xmlns="http://www.w3.org/2000/svg" width="46" height="45" viewBox="0 0 46 45"><path fill="#c00" d="M36.27 18.86c-.26-.36-.53-.71-.83-1.05h.01c-.3-1.45-1.95-3.35-1.95-3.35s.02.78.01 1.44l-.42-.33v-.02c-.56-3.35-3.49-5.41-3.49-5.41.5.49.57 2.37 0 1.6-.56-.76-3.18-4.1-2.4-2.02.77 2.08-1.07.23-1.07.23s-2.4-6.63-3.18-4.4c-.55 1.56-2.08 3.1-2.76 3.79.31-.72.5-2.2.5-2.2s-.43 1.26-2.63 2.72a8.93 8.93 0 0 0-2.3 2.39c.2-.83.13-1.41-1.18.19-2.34 2.85-3.07 4.03-3.18 3.2-.12-.92.43-2.16.43-2.16a19.65 19.65 0 0 0-2.5 5.23h.4v18.91a16.4 16.4 0 0 0 13.22 6.63 16.4 16.4 0 0 0 13.32-6.77zm6.78 2.27C42.45 9.23 34.06.74 22.65.74 11.04.74 2.56 9.57 2.25 21.83a9.65 9.65 0 0 1 3.21-2.3c1.21-9.31 8.07-15.8 17.2-15.8 9.05 0 15.86 6.36 17.17 15.52 1.2.41 2.3 1.06 3.23 1.88zm-3.13-1.04a8.87 8.87 0 0 0-2.9-.62v17.4a8.79 8.79 0 0 0 8.49-8.7 8.6 8.6 0 0 0-2.43-5.97 8.88 8.88 0 0 0-3.16-2.11zM8.97 36.88V19.46a8.91 8.91 0 0 0-6.33 3.04 8.58 8.58 0 0 0-2.15 5.66c0 4.68 3.77 8.5 8.48 8.7z"/></svg>