<svg xmlns="http://www.w3.org/2000/svg" width="53" height="65" viewBox="0 0 53 65"><path fill="#c00" d="M1.05 31.09h4.82L3.08 28.2a.85.85 0 0 1 0-1.18.79.79 0 0 1 1.14 0l3.93 4.06h6.45c.45 0 .8.36.8.81a.8.8 0 0 1-.8.82H8.17L4.22 36.8a.79.79 0 0 1-1.14 0 .85.85 0 0 1 0-1.18l2.81-2.9H1.05a.8.8 0 0 1-.8-.82.8.8 0 0 1 .8-.81zM14.6 28.8a.79.79 0 0 1-.57-.24l-1.9-1.96h-4.3a.82.82 0 0 1-.8-.84c0-.46.35-.83.8-.83h2.68l-.65-.68a.84.84 0 0 1 0-1.17.78.78 0 0 1 1.13 0l.71.74v-3.13c0-.46.37-.83.81-.83.45 0 .81.37.81.83v4.78l1.85 1.91c.32.33.32.85 0 1.18a.8.8 0 0 1-.57.24zm.57 6.22c.32.32.32.85 0 1.17l-1.85 1.91v4.79c0 .45-.36.83-.8.83a.82.82 0 0 1-.82-.83v-3.13l-.7.73a.78.78 0 0 1-1.14 0 .85.85 0 0 1 0-1.17l.65-.67H7.83a.82.82 0 0 1-.8-.84c0-.45.35-.83.8-.83h4.3l1.9-1.96a.8.8 0 0 1 1.14 0zM37.55 53.6A11.1 11.1 0 0 1 26.5 64.75c-6.1 0-11.04-5-11.04-11.15 0-4.12 2.26-7.72 5.5-9.65V6.36a5.1 5.1 0 0 1 5.07-5.1h.95a5.1 5.1 0 0 1 5.09 5.1v37.6a11.28 11.28 0 0 1 5.48 9.64zm-5.59 0c0-3.04-2.44-5.5-5.45-5.5a5.48 5.48 0 0 0-5.46 5.5c0 3.04 2.45 5.5 5.46 5.5a5.48 5.48 0 0 0 5.45-5.5zm10.65-42.24c0 4-2.93 7.32-6.72 7.87a.95.95 0 0 1-.76-.23.99.99 0 0 1-.34-.74v-.07a1 1 0 0 1 .85-.99 5.89 5.89 0 0 0 4.96-5.84 5.89 5.89 0 0 0-4.96-5.84 1 1 0 0 1-.85-.99V4.5c0-.29.13-.56.35-.75.22-.2.51-.28.8-.24a7.92 7.92 0 0 1 6.67 7.86zm10.13.02c0 .56-.45 1.01-1 1.01h-7.37c-.56 0-1-.45-1-1.01 0-.57.44-1.02 1-1.02h7.37a1 1 0 0 1 1 1.02zM42.73 7.25c-.4-.4-.4-1.05 0-1.45l5.2-5.3a1 1 0 0 1 1.43 0c.4.4.4 1.05 0 1.45l-5.21 5.3a1 1 0 0 1-1.42 0zm6.63 13.66c.4.4.4 1.05 0 1.45a1 1 0 0 1-1.42 0l-5.21-5.3c-.4-.4-.4-1.04 0-1.44a1 1 0 0 1 1.42 0z"/></svg>