<svg xmlns="http://www.w3.org/2000/svg" width="71" height="70" viewBox="0 0 71 70">
  <metadata><?xpacket begin="﻿" id="W5M0MpCehiHzreSzNTczkc9d"?>
<x:xmpmeta xmlns:x="adobe:ns:meta/" x:xmptk="Adobe XMP Core 5.6-c138 79.159824, 2016/09/14-01:09:01        ">
   <rdf:RDF xmlns:rdf="http://www.w3.org/1999/02/22-rdf-syntax-ns#">
      <rdf:Description rdf:about=""/>
   </rdf:RDF>
</x:xmpmeta>
                                                                                                    
                                                                                                    
                                                                                                    
                                                                                                    
                                                                                                    
                                                                                                    
                                                                                                    
                                                                                                    
                                                                                                    
                                                                                                    
                                                                                                    
                                                                                                    
                                                                                                    
                                                                                                    
                                                                                                    
                                                                                                    
                                                                                                    
                                                                                                    
                                                                                                    
                                                                                                    
                           
<?xpacket end="w"?></metadata>
<defs>
    <style>
      .cls-1 {
        fill: #c00;
        fill-rule: evenodd;
      }
    </style>
  </defs>
  <path id="Forma_1" data-name="Forma 1" class="cls-1" d="M430.661,1706.55a17.227,17.227,0,0,0,1.546,3.66l-1.866,2.34a1.92,1.92,0,0,0,.145,2.55l3.214,3.2a1.937,1.937,0,0,0,2.559.15l2.339-1.85a17.085,17.085,0,0,0,3.815,1.61l0.351,3a1.925,1.925,0,0,0,1.911,1.7h4.548a1.925,1.925,0,0,0,1.911-1.7l0.335-2.89a17.186,17.186,0,0,0,4.09-1.65l2.262,1.78a1.938,1.938,0,0,0,2.56-.14l3.214-3.2a1.91,1.91,0,0,0,.144-2.55l-1.759-2.22a16.8,16.8,0,0,0,1.683-4.01l2.712-.31a1.916,1.916,0,0,0,1.706-1.9v-4.53a1.933,1.933,0,0,0-1.706-1.91l-2.674-.31a16.857,16.857,0,0,0-1.614-3.96l1.645-2.07a1.919,1.919,0,0,0-.145-2.55l-3.206-3.19a1.939,1.939,0,0,0-2.56-.15l-2.018,1.6a17.064,17.064,0,0,0-4.181-1.75l-0.305-2.6a1.925,1.925,0,0,0-1.912-1.7h-4.547a1.924,1.924,0,0,0-1.911,1.7l-0.305,2.6a16.725,16.725,0,0,0-4.288,1.81l-2.095-1.66a1.937,1.937,0,0,0-2.559.15l-3.214,3.2a1.912,1.912,0,0,0-.145,2.55l1.752,2.21a16.327,16.327,0,0,0-1.584,3.99l-2.8.32a1.925,1.925,0,0,0-1.706,1.91v4.53a1.916,1.916,0,0,0,1.706,1.9Zm16.475-12.25a7.485,7.485,0,1,1-7.518,7.49A7.513,7.513,0,0,1,447.136,1694.3Zm44.952,13.37-2.4-2.02a1.906,1.906,0,0,0-2.529.07l-1.325,1.23a13.7,13.7,0,0,0-3.534-1.14l-0.373-1.82a1.907,1.907,0,0,0-2.027-1.51l-3.13.26a1.911,1.911,0,0,0-1.744,1.83l-0.061,1.85a13.809,13.809,0,0,0-3.374,1.77l-1.584-1.05a1.906,1.906,0,0,0-2.506.36l-2.026,2.4a1.886,1.886,0,0,0,.069,2.52l1.386,1.47a14.157,14.157,0,0,0-1.021,3.37l-1.98.4a1.914,1.914,0,0,0-1.523,2.02l0.266,3.12a1.9,1.9,0,0,0,1.836,1.74l2.14,0.07a13.955,13.955,0,0,0,1.516,2.88l-1.2,1.8a1.883,1.883,0,0,0,.358,2.49l2.4,2.02a1.906,1.906,0,0,0,2.529-.07l1.569-1.46a14.053,14.053,0,0,0,3.221,1.05l0.435,2.13a1.9,1.9,0,0,0,2.025,1.52l3.131-.26a1.912,1.912,0,0,0,1.744-1.83l0.069-2.1a13.8,13.8,0,0,0,3.221-1.62l1.729,1.14a1.906,1.906,0,0,0,2.506-.36l2.026-2.39a1.886,1.886,0,0,0-.069-2.52l-1.393-1.47a13.622,13.622,0,0,0,1.1-3.38l1.905-.39a1.909,1.909,0,0,0,1.523-2.02l-0.267-3.11a1.9,1.9,0,0,0-1.835-1.74l-1.912-.06a13.692,13.692,0,0,0-1.592-3.13l1.044-1.56A1.877,1.877,0,0,0,492.088,1707.67Zm-11.8,18.02a6.127,6.127,0,1,1,5.613-6.62A6.143,6.143,0,0,1,480.29,1725.69Zm-38.676,8.39a1.9,1.9,0,0,0-1.706,1.87l-0.023,1.92a1.889,1.889,0,0,0,1.66,1.9l1.417,0.18a10.8,10.8,0,0,0,1,2.45l-0.914,1.13a1.889,1.889,0,0,0,.114,2.52l1.349,1.37a1.908,1.908,0,0,0,2.528.17l1.135-.87a11.257,11.257,0,0,0,2.529,1.1l0.152,1.46a1.907,1.907,0,0,0,1.874,1.7l1.927,0.02a1.9,1.9,0,0,0,1.911-1.65l0.176-1.39a11.265,11.265,0,0,0,2.741-1.06l1.067,0.86a1.906,1.906,0,0,0,2.528-.11l1.379-1.35a1.89,1.89,0,0,0,.175-2.52l-0.815-1.05a10.827,10.827,0,0,0,1.158-2.66l1.264-.12a1.9,1.9,0,0,0,1.706-1.87l0.023-1.92a1.891,1.891,0,0,0-1.66-1.9l-1.234-.16a11.452,11.452,0,0,0-1.044-2.66l0.77-.94a1.889,1.889,0,0,0-.114-2.52l-1.349-1.37a1.909,1.909,0,0,0-2.528-.18l-0.922.71a11.235,11.235,0,0,0-2.772-1.2L457,1724.75a1.9,1.9,0,0,0-1.874-1.7l-1.927-.02a1.892,1.892,0,0,0-1.911,1.65l-0.153,1.19a11.436,11.436,0,0,0-2.871,1.16l-0.952-.77a1.907,1.907,0,0,0-2.529.11l-1.386,1.35a1.891,1.891,0,0,0-.175,2.52l0.815,1.05a10.959,10.959,0,0,0-1.089,2.65Zm12.437-2.17a5,5,0,1,1-5.072,4.93A5.006,5.006,0,0,1,454.051,1731.91Z" transform="translate(-426 -1681)"/>
</svg>
