<svg xmlns="http://www.w3.org/2000/svg" width="65" height="69.97" viewBox="0 0 65 69.97">
  <metadata><?xpacket begin="﻿" id="W5M0MpCehiHzreSzNTczkc9d"?>
<x:xmpmeta xmlns:x="adobe:ns:meta/" x:xmptk="Adobe XMP Core 5.6-c138 79.159824, 2016/09/14-01:09:01        ">
   <rdf:RDF xmlns:rdf="http://www.w3.org/1999/02/22-rdf-syntax-ns#">
      <rdf:Description rdf:about=""/>
   </rdf:RDF>
</x:xmpmeta>
                                                                                                    
                                                                                                    
                                                                                                    
                                                                                                    
                                                                                                    
                                                                                                    
                                                                                                    
                                                                                                    
                                                                                                    
                                                                                                    
                                                                                                    
                                                                                                    
                                                                                                    
                                                                                                    
                                                                                                    
                                                                                                    
                                                                                                    
                                                                                                    
                                                                                                    
                                                                                                    
                           
<?xpacket end="w"?></metadata>
<defs>
    <style>
      .cls-1 {
        fill: #c00;
        fill-rule: evenodd;
      }
    </style>
  </defs>
  <path id="Forma_1" data-name="Forma 1" class="cls-1" d="M1070.99,1695.74a3.206,3.206,0,0,0-2.91-3.15c-13.58-1.26-24.65-8.52-28.3-11.17a2.16,2.16,0,0,0-2.56,0c-3.65,2.65-14.72,9.91-28.29,11.17a3.215,3.215,0,0,0-2.92,3.15c-0.16,10.71,1.55,47.06,31.67,55.15a3.008,3.008,0,0,0,1.63,0C1069.43,1742.81,1071.15,1706.45,1070.99,1695.74Zm-48.13,31.99a3.094,3.094,0,0,0,4.38,4.37l10.17-10.15-4.38-4.37Zm25.41-18.81,4.43-2.29,2.32-4.47-2.16-2.16-4.49,2.31-2.29,4.42-5.39,5.38,2.19,2.19Zm0.97,11.73-0.42-.04a6.114,6.114,0,0,0-2.14.4l-12.71-12.69a6.114,6.114,0,0,0,.4-2.14l-0.04-.42a6.168,6.168,0,0,0-6.15-5.76,6.041,6.041,0,0,0-2.65.62l4.11,4.1a1.909,1.909,0,0,1,.46.75,2.035,2.035,0,0,1-2.64,2.63,2.134,2.134,0,0,1-.74-0.46l-4.11-4.11a6.074,6.074,0,0,0-.62,2.65,6.167,6.167,0,0,0,5.77,6.14l0.42,0.04a6.071,6.071,0,0,0,2.14-.4l12.71,12.69a6.3,6.3,0,0,0-.4,2.14l0.04,0.41a6.176,6.176,0,0,0,6.15,5.77,6.084,6.084,0,0,0,2.66-.62l-4.12-4.11a2.046,2.046,0,0,1-.46-0.74,2.04,2.04,0,0,1,1.92-2.77,1.963,1.963,0,0,1,.72.14,2.046,2.046,0,0,1,.74.46l4.12,4.11A6.116,6.116,0,0,0,1049.24,1720.65Z" transform="translate(-1006 -1681.03)"/>
</svg>
