<svg xmlns="http://www.w3.org/2000/svg" width="1015" height="198.7" viewBox="0 0 1015 198.7"><defs><filter id="a" width="200%" height="200%" x="-50%" y="-50%"><feMorphology in="SourceGraphic" operator="dilate" result="SvgjsFeMorphology1010Out"/><feOffset dx="5" dy="8.7" in="SvgjsFeMorphology1010Out" result="SvgjsFeOffset1011Out"/><feGaussianBlur in="SvgjsFeOffset1011Out" result="SvgjsFeGaussianBlur1012Out"/><feComposite in="SvgjsFeGaussianBlur1012Out" in2="SourceAlpha" operator="out" result="SvgjsFeComposite1013Out"/></filter><clipPath id="b"><path fill="#fff" d="M391.57 2070H1374c3.31 0 5.99 1.82 5.99 4.08v181.84c0 2.25-2.68 4.08-5.99 4.08H391.57c-3.31 0-6-1.83-6-4.08v-136.18l-15.57 7.34 15.58-21.61v-31.39c0-2.26 2.68-4.08 5.99-4.08z"/></clipPath></defs><path fill-opacity=".1" d="M391.57 2070H1374c3.31 0 5.99 1.82 5.99 4.08v181.84c0 2.25-2.68 4.08-5.99 4.08H391.57c-3.31 0-6-1.83-6-4.08v-136.18l-15.57 7.34 15.58-21.61v-31.39c0-2.26 2.68-4.08 5.99-4.08z" filter="url(#a)" transform="translate(-370 -2070)"/><path fill="#fff" d="M21.57 0H1004c3.31 0 5.99 1.82 5.99 4.08v181.84c0 2.25-2.68 4.08-5.99 4.08H21.57c-3.31 0-6-1.83-6-4.08V49.74L0 57.08l15.58-21.61V4.08c0-2.26 2.68-4.08 5.99-4.08z"/><path fill="#fff" d="M21.57 0H1004c3.31 0 5.99 1.82 5.99 4.08v181.84c0 2.25-2.68 4.08-5.99 4.08H21.57c-3.31 0-6-1.83-6-4.08V49.74L0 57.08l15.58-21.61V4.08c0-2.26 2.68-4.08 5.99-4.08z"/><path fill="none" stroke="#e5e5e5" stroke-miterlimit="50" stroke-width="2" d="M391.57 2070H1374c3.31 0 5.99 1.82 5.99 4.08v181.84c0 2.25-2.68 4.08-5.99 4.08H391.57c-3.31 0-6-1.83-6-4.08v-136.18l-15.57 7.34 15.58-21.61v-31.39c0-2.26 2.68-4.08 5.99-4.08z" clip-path="url(&quot;#b&quot;)" transform="translate(-370 -2070)"/></svg>