<svg xmlns="http://www.w3.org/2000/svg" width="42" height="52" viewBox="0 0 42 52"><path fill="#4272b7" d="M8.69 12.29h13.14c.68 0 1.24-.55 1.24-1.22 0-.67-.56-1.22-1.24-1.22H8.69c-.68 0-1.23.55-1.23 1.22 0 .67.55 1.22 1.23 1.22zm0 6.02H26.6a1.22 1.22 0 0 0 0-2.44H8.69a1.22 1.22 0 1 0 0 2.44zM3.7 3.66h27.9v19.11a6 6 0 0 1 1.24.54 4.8 4.8 0 0 1 2.35-.7h.1V3.66A3.67 3.67 0 0 0 31.6 0H3.7A3.68 3.68 0 0 0 0 3.66v40.75a3.68 3.68 0 0 0 3.7 3.66h22.37v-3.66H3.7zm37.28 28.16c-.28-.24-.59-.52-.66-.73-.07-.23.02-.63.1-1.01.13-.61.28-1.3-.1-1.81-.38-.52-1.09-.6-1.72-.66-.38-.04-.8-.08-.99-.22-.19-.13-.36-.52-.51-.85-.26-.58-.55-1.23-1.17-1.43a1.15 1.15 0 0 0-.37-.06c-.48 0-.94.26-1.38.52-.35.2-.72.41-.97.41s-.61-.21-.97-.41c-.44-.26-.9-.52-1.38-.52-.13 0-.25.02-.37.06-.62.2-.91.85-1.17 1.43-.15.33-.32.72-.5.85-.2.14-.62.18-1 .22-.63.06-1.34.14-1.72.66-.38.51-.23 1.2-.1 1.81.09.38.17.79.1 1.01-.07.21-.38.49-.66.73-.48.42-1.02.9-1.02 1.56s.54 1.14 1.02 1.56c.28.24.59.52.66.73.07.23-.01.63-.1 1.01-.13.61-.28 1.3.1 1.82s1.09.59 1.72.65c.38.04.8.08 1 .22.18.13.35.52.5.86.26.57.55 1.22 1.17 1.43.12.03.24.05.37.05.48 0 .94-.26 1.38-.52.36-.2.72-.41.97-.41s.62.21.97.41c.44.26.9.52 1.38.52.13 0 .25-.02.37-.05.62-.21.91-.86 1.17-1.43.15-.34.32-.73.51-.86.19-.14.61-.18.99-.22.63-.06 1.34-.13 1.72-.65.38-.52.23-1.21.1-1.82-.08-.38-.17-.78-.1-1.01.07-.21.38-.49.66-.73.48-.42 1.02-.9 1.02-1.56s-.54-1.14-1.02-1.56zm-7.77 4.73a3.18 3.18 0 0 1-3.2-3.17 3.18 3.18 0 0 1 3.2-3.17c1.77 0 3.2 1.42 3.2 3.17a3.18 3.18 0 0 1-3.2 3.17zm3.01 5.99c-.21.07-.43.1-.66.1-.73 0-1.35-.36-1.85-.65l-.5-.26-.5.26c-.5.29-1.12.65-1.85.65-.23 0-.45-.03-.66-.1a2.4 2.4 0 0 1-1.29-1.07V51.5a.5.5 0 0 0 .85.36l3.45-3.14 3.45 3.14c.1.09.22.14.35.14.07 0 .14-.02.2-.05a.5.5 0 0 0 .3-.45V41.47a2.4 2.4 0 0 1-1.29 1.07z"/></svg>