<svg xmlns="http://www.w3.org/2000/svg" width="48" height="48" viewBox="0 0 48 48"><path fill="#4272b7" d="M17 26v-4h18v4zm6.03 18.47H5.56A5.56 5.56 0 0 1 0 38.91V5.56C0 2.49 2.5.01 5.56.01h33.37a5.55 5.55 0 0 1 5.56 5.55v17.02a5.6 5.6 0 0 0-3.7.46V7.42H3.7v31.49c0 1.02.83 1.85 1.85 1.85h18.56zM17 19v-4h18v4zm-.32 10.65h16.88l-3.72 3.7H16.68zM9 26v-4h4v4zm0-7v-4h4v4zm0 14v-3h4v3zm38.4-.67l-2.27 2.27-5.61-5.64 2.26-2.27a1.97 1.97 0 0 1 2.8.02l2.81 2.81c.77.78.78 2.04 0 2.81zm-9.81-1.58l5.86 5.87-9.16 9.11a.82.82 0 0 1-.38.26l-6.67 1.96a.82.82 0 0 1-1.03-1.02l1.96-6.7a.79.79 0 0 1 .28-.39zm-4.53 13.76l-.56-2.9-2.84-.58-1.1 3.79.77.79z"/></svg>