<svg xmlns="http://www.w3.org/2000/svg" width="64" height="60" viewBox="0 0 64 60"><path fill="#3d6aa3" d="M63.2 26.8l-3.04-5.7-.93-6.38a6.87 6.87 0 0 0-3.8-5.18L49.6 6.71l-4.52-4.63A6.97 6.97 0 0 0 38.9.1l-6.4 1.1L26.1.1a6.97 6.97 0 0 0-6.17 1.98L15.4 6.71 9.57 9.54a6.86 6.86 0 0 0-3.8 5.18l-.94 6.38-3.03 5.7a6.8 6.8 0 0 0 0 6.4l3.03 5.7.93 6.38a6.87 6.87 0 0 0 3.8 5.18l5.84 2.83 4.53 4.62a6.97 6.97 0 0 0 6.16 1.99l6.4-1.1 6.41 1.1a6.95 6.95 0 0 0 6.17-1.99l4.52-4.62 5.84-2.83a6.87 6.87 0 0 0 3.8-5.18l.93-6.38 3.04-5.7a6.8 6.8 0 0 0 0-6.4zM32.5 51.53A21.64 21.64 0 0 1 10.75 30c0-11.9 9.74-21.53 21.75-21.53A21.64 21.64 0 0 1 54.25 30c0 11.9-9.74 21.53-21.75 21.53zm7.52-33.14L20.77 37.45a2.92 2.92 0 0 0 0 4.16 2.98 2.98 0 0 0 4.2 0l19.26-19.06a2.92 2.92 0 0 0 0-4.16 3 3 0 0 0-4.2 0zM21 22.97a4.39 4.39 0 0 0 4.41 4.37 4.39 4.39 0 0 0 4.41-4.37 4.39 4.39 0 0 0-4.41-4.36A4.39 4.39 0 0 0 21 22.97zm14.2 14.06a4.39 4.39 0 0 0 4.4 4.36 4.39 4.39 0 0 0 4.42-4.36 4.39 4.39 0 0 0-4.41-4.37 4.39 4.39 0 0 0-4.41 4.37zM25 21a2 2 0 1 1 0 4 2 2 0 0 1 0-4zm15 14a2 2 0 1 1 0 4 2 2 0 0 1 0-4z"/><path fill="#4273b7" d="M63.2 26.8l-3.04-5.7-.93-6.38a6.87 6.87 0 0 0-3.8-5.18L49.6 6.71l-4.52-4.63A6.97 6.97 0 0 0 38.9.1l-6.4 1.1L26.1.1a6.97 6.97 0 0 0-6.17 1.98L15.4 6.71 9.57 9.54a6.86 6.86 0 0 0-3.8 5.18l-.94 6.38-3.03 5.7a6.8 6.8 0 0 0 0 6.4l3.03 5.7.93 6.38a6.87 6.87 0 0 0 3.8 5.18l5.84 2.83 4.53 4.62a6.97 6.97 0 0 0 6.16 1.99l6.4-1.1 6.41 1.1a6.95 6.95 0 0 0 6.17-1.99l4.52-4.62 5.84-2.83a6.87 6.87 0 0 0 3.8-5.18l.93-6.38 3.04-5.7a6.8 6.8 0 0 0 0-6.4zM32.5 51.53A21.64 21.64 0 0 1 10.75 30c0-11.9 9.74-21.53 21.75-21.53A21.64 21.64 0 0 1 54.25 30c0 11.9-9.74 21.53-21.75 21.53zm7.52-33.14L20.77 37.45a2.92 2.92 0 0 0 0 4.16 2.98 2.98 0 0 0 4.2 0l19.26-19.06a2.92 2.92 0 0 0 0-4.16 3 3 0 0 0-4.2 0zM21 22.97a4.39 4.39 0 0 0 4.41 4.37 4.39 4.39 0 0 0 4.41-4.37 4.39 4.39 0 0 0-4.41-4.36A4.39 4.39 0 0 0 21 22.97zm14.2 14.06a4.39 4.39 0 0 0 4.4 4.36 4.39 4.39 0 0 0 4.42-4.36 4.39 4.39 0 0 0-4.41-4.37 4.39 4.39 0 0 0-4.41 4.37zM25 21a2 2 0 1 1 0 4 2 2 0 0 1 0-4zm15 14a2 2 0 1 1 0 4 2 2 0 0 1 0-4z"/></svg>