<svg xmlns="http://www.w3.org/2000/svg" width="47" height="47" viewBox="0 0 47 47"><path fill="#4272b7" d="M26.18 8.37H10.15a2.13 2.13 0 1 0 0 4.27h16.03a2.14 2.14 0 0 0 0-4.27zm2.14 10.14c0-1.18-.95-2.13-2.14-2.13H10.15a2.14 2.14 0 0 0 0 4.27h16.03c1.19 0 2.14-.96 2.14-2.14zM18.17 28.66a2.13 2.13 0 1 0 0-4.27h-8.02a2.13 2.13 0 1 0 0 4.27zm16.13 7.27l-2.24 1.48v5.32H4.27V4.27h27.8v8.44l4.27-7.4V2.14C36.34.95 35.38 0 34.2 0H2.14C.96 0 0 .96 0 2.14v42.72C0 46.04.96 47 2.14 47H34.2c1.18 0 2.14-.96 2.14-2.14V33.09l-1.02 1.76c-.25.44-.6.81-1.02 1.08zM46.94 9.89c-.04-.19-.5-1.91-3.21-3.48-2.72-1.57-4.44-1.1-4.63-1.04-.26.08-.47.25-.6.48L25.12 28.98c-.08.14-.13.3-.14.47l-.5 8.34c-.02.41.18.79.53.99.36.21.79.19 1.13-.03l6.98-4.61c.14-.09.25-.21.33-.35l13.36-23.13c.14-.23.18-.5.12-.77zm-18.1 25.16a10.05 10.05 0 0 0-2.49-1.43l.15-2.5a6.5 6.5 0 0 1 2.43.9 6.74 6.74 0 0 1 2 1.65zM14.9 38.53c.07.43.57.57.9.7.32.14.7-.12.97-.25 1.63-.79 3.84.14 5.58.14 1.04 0 1.04-1.6 0-1.6-2.03 0-3.73-.51-5.75-.18a.98.98 0 0 0-.17-.49c-.37-.65-.85-.83-1.33-.75a1.83 1.83 0 0 0-.11-.23.72.72 0 0 0-.5-.35c.56-.99.92-2.03.55-2.87-.1-.25-.43-.39-.69-.4-1.07-.04-1.99 1.09-2.68 1.76a52.15 52.15 0 0 0-4.7 5.51c-.63.82.76 1.61 1.38.81a56.37 56.37 0 0 1 4.16-4.86 27.7 27.7 0 0 1-1.13 1.71c-.57.88.79 1.63 1.38.81.14-.21.32-.37.52-.5l-.12.29v.01l-.08.19c-.36.89.98 1.3 1.46.61.13-.17.24-.36.34-.55 0 .13 0 .31.02.49z"/></svg>