<svg xmlns="http://www.w3.org/2000/svg" width="68" height="48" viewBox="0 0 68 48"><path fill="#4272b7" d="M33.12 26.04a4.87 4.87 0 0 0-3.78-1.95c-1.41 0-2.75.69-3.77 1.95-2.83 1-4.58 3-4.58 5.25 0 2.24 1.75 4.24 4.58 5.25a4.87 4.87 0 0 0 3.77 1.95c1.42 0 2.75-.69 3.78-1.95 2.82-1.01 4.57-3.01 4.57-5.25 0-2.25-1.75-4.25-4.57-5.25zm11.3 2.16c-2.34 0-4.24 1.38-4.24 3.09 0 1.7 1.9 3.08 4.25 3.08 2.34 0 4.25-1.38 4.25-3.08 0-1.71-1.9-3.09-4.25-3.09zm-30.16 0c-2.35 0-4.26 1.38-4.26 3.09 0 1.7 1.91 3.08 4.26 3.08 2.34 0 4.25-1.38 4.25-3.08 0-1.71-1.9-3.09-4.25-3.09zm52.46-16.38L12.54.04a1.62 1.62 0 0 0-1.93 1.24L7.74 14.57H1.62c-.9 0-1.62.73-1.62 1.63v30.17C0 47.27.73 48 1.62 48h55.44c.9 0 1.62-.73 1.62-1.63v-2.1l.97.21c.88.19 1.74-.36 1.93-1.24l6.38-29.49a1.62 1.62 0 0 0-1.24-1.93zM53.34 38.55a4.22 4.22 0 0 0-3.73 6.2H9.07a4.21 4.21 0 0 0-5.83-5.63V23.46a4.22 4.22 0 0 0 5.83-5.63h40.54a4.22 4.22 0 0 0 5.83 5.63v15.66a4.17 4.17 0 0 0-2.1-.57zM12.24 9.06a4.2 4.2 0 0 0 6.89-4.26l39.62 8.61c-.34.41-.62.9-.79 1.44a1.57 1.57 0 0 0-.9-.28h-46zm47.7 26.4c-.36-.33-.78-.6-1.26-.79V18.76a4.2 4.2 0 0 0 4.58 1.39z"/></svg>